<?xml version="1.0" standalone="no"?>
<!DOCTYPE svg PUBLIC "-//W3C//DTD SVG 20010904//EN"
 "http://www.w3.org/TR/2001/REC-SVG-20010904/DTD/svg10.dtd">
<svg version="1.0" xmlns="http://www.w3.org/2000/svg"
 width="1000.000000pt" height="1000.000000pt" viewBox="0 0 1000.000000 1000.000000"
 preserveAspectRatio="xMidYMid meet">
<metadata>
Created by potrace 1.11, written by Peter Selinger 2001-2013
</metadata>
<g transform="translate(0.000000,1000.000000) scale(0.100000,-0.100000)"
fill="#000000" stroke="none">
<path d="M4461 8473 c-293 -294 -532 -536 -530 -538 2 -3 793 -794 1758 -1760
l1754 -1755 -49 -53 -49 -54 -1761 1760 -1762 1760 -241 -241 -242 -241 2001
-2000 c1101 -1101 2003 -2001 2006 -2001 4 0 377 371 831 825 l825 825 -977
977 -976 976 -117 -115 -117 -115 -48 50 -48 51 115 115 114 116 -976 976
-977 976 -534 -534z m1121 -1020 c315 -315 599 -599 631 -631 l58 -59 -51 -52
-52 -51 -636 635 -635 636 49 50 c26 27 52 48 56 47 4 -2 266 -260 580 -575z
m1818 -1818 l630 -629 -43 -45 c-23 -25 -46 -49 -51 -52 -6 -4 -295 278 -644
627 l-635 635 24 26 c43 48 72 74 81 71 4 -2 292 -286 638 -633z"/>
<path d="M2696 6708 l-529 -530 1999 -1999 c1099 -1099 2003 -1999 2008 -1999
4 0 247 239 538 531 l531 530 -1999 1999 c-1100 1100 -2003 1999 -2009 1999
-5 0 -248 -239 -539 -531z m2059 -1946 c829 -830 1508 -1513 1508 -1517 1 -5
-21 -30 -48 -56 l-48 -47 -1515 1515 -1515 1515 49 49 c26 27 51 49 54 49 4 0
685 -679 1515 -1508z"/>
<path d="M1524 5537 l-531 -532 2004 -2003 2003 -2004 530 530 c291 291 530
534 530 539 0 5 -437 447 -972 981 l-972 973 -238 -238 c-131 -131 -238 -241
-238 -244 0 -4 328 -335 730 -737 l730 -729 -50 -49 c-28 -27 -53 -48 -57 -46
-11 3 -3023 3015 -3023 3022 0 3 22 28 50 55 l49 48 732 -732 732 -733 242
242 241 241 -972 972 c-535 534 -976 972 -981 974 -4 1 -247 -238 -539 -530z"/>
</g>
</svg>
